<?xml version="1.0" encoding="UTF-8" standalone="no"?>
<svg
   xmlns:dc="http://purl.org/dc/elements/1.1/"
   xmlns:cc="http://creativecommons.org/ns#"
   xmlns:rdf="http://www.w3.org/1999/02/22-rdf-syntax-ns#"
   xmlns:svg="http://www.w3.org/2000/svg"
   xmlns="http://www.w3.org/2000/svg"
   xmlns:sodipodi="http://sodipodi.sourceforge.net/DTD/sodipodi-0.dtd"
   xmlns:inkscape="http://www.inkscape.org/namespaces/inkscape"
   height="48"
   viewBox="0 0 47.999116 48.000997"
   width="48"
   id="svg4243"
   version="1.1"
   inkscape:version="0.91 r13725"
   sodipodi:docname="Debian-OpenLogo.svg">
  <metadata
     id="metadata4287">
    <rdf:RDF>
      <cc:Work
         rdf:about="">
        <dc:format>image/svg+xml</dc:format>
        <dc:type
           rdf:resource="http://purl.org/dc/dcmitype/StillImage" />
        <dc:title></dc:title>
      </cc:Work>
    </rdf:RDF>
  </metadata>
  <defs
     id="defs4285" />
  <sodipodi:namedview
     pagecolor="#ffffff"
     bordercolor="#666666"
     borderopacity="1"
     objecttolerance="10"
     gridtolerance="10"
     guidetolerance="10"
     inkscape:pageopacity="0"
     inkscape:pageshadow="2"
     inkscape:window-width="1920"
     inkscape:window-height="1121"
     id="namedview4283"
     showgrid="false"
     inkscape:zoom="13.099285"
     inkscape:cx="16.469216"
     inkscape:cy="32.294885"
     inkscape:window-x="2996"
     inkscape:window-y="308"
     inkscape:window-maximized="1"
     inkscape:current-layer="svg4243" />
  <path
     d="m 27.59416,25.221097 c -0.785894,0.01052 0.147816,0.403993 1.174107,0.562329 0.284584,-0.221986 0.540236,-0.445024 0.769588,-0.662802 -0.638079,0.156232 -1.288257,0.159914 -1.943695,0.100475"
     id="path4245"
     inkscape:connector-curvature="0"
     style="fill:#d70751" />
  <path
     d="m 31.811371,24.169555 c 0.469748,-0.646496 0.810618,-1.353484 0.93108,-2.084671 -0.105733,0.520773 -0.38716,0.970532 -0.654386,1.446066 -1.469212,0.925294 -0.138873,-0.549179 -10e-4,-1.110457 -1.579153,1.989986 -0.217778,1.193044 -0.275641,1.749062"
     id="path4247"
     inkscape:connector-curvature="0"
     style="fill:#d70751" />
  <path
     d="m 33.370009,20.116992 c 0.09574,-1.415556 -0.278272,-0.967375 -0.403994,-0.428191 0.146237,0.0768 0.262491,0.998412 0.403994,0.428191"
     id="path4249"
     inkscape:connector-curvature="0"
     style="fill:#d70751" />
  <path
     d="m 24.612602,0.77000302 c 0.419775,0.0746968 0.906881,0.13256045 0.836919,0.23303288 0.460805,-0.10152451 0.564434,-0.19305433 -0.836919,-0.23303288"
     id="path4251"
     inkscape:connector-curvature="0"
     style="fill:#d70751" />
  <path
     d="m 25.450047,1.0030359 -0.295105,0.061546 0.275116,-0.02525 0.01999,-0.036296"
     id="path4253"
     inkscape:connector-curvature="0"
     style="fill:#d70751" />
  <path
     d="m 38.531976,20.653547 c 0.04734,1.270897 -0.370853,1.88846 -0.749071,2.980506 l -0.680162,0.338239 c -0.556018,1.080474 0.05524,0.685948 -0.342974,1.544962 -0.869007,0.77169 -2.633324,2.413968 -3.198284,2.564413 -0.412937,-0.0089 0.279324,-0.487107 0.369802,-0.67385 -1.162009,0.797468 -0.932657,1.197254 -2.710125,1.682782 l -0.05155,-0.116253 c -4.381859,2.062052 -10.46912,-2.023652 -10.389163,-7.597503 -0.04629,0.353494 -0.133087,0.26512 -0.229877,0.40715 -0.226194,-2.867409 1.324553,-5.747443 3.939992,-6.925232 2.558102,-1.265638 5.557019,-0.746968 7.388142,0.962115 -1.005776,-1.31824 -3.009438,-2.715911 -5.382376,-2.586507 -2.325594,0.03787 -4.501795,1.515502 -5.227722,3.120431 -1.19094,0.749598 -1.329813,2.891081 -1.848482,3.283501 -0.699098,5.134088 1.313506,7.35132 4.718522,9.960973 0.53445,0.360859 0.150445,0.416092 0.221985,0.690682 -1.130971,-0.52919 -2.166205,-1.328761 -3.01838,-2.307709 0.452388,0.661224 0.940022,1.304037 1.570736,1.809029 -1.067322,-0.360333 -2.492347,-2.584403 -2.907387,-2.674881 1.838487,3.291918 7.458103,5.773219 10.402313,4.541775 -1.362427,0.05049 -3.092551,0.02787 -4.622256,-0.537607 -0.644392,-0.330875 -1.517081,-1.015245 -1.36085,-1.143071 4.016793,1.499722 8.165094,1.135181 11.640072,-1.650167 0.884789,-0.689104 1.850586,-1.860581 2.12991,-1.876362 -0.420301,0.632292 0.07207,0.304048 -0.250918,0.862169 0.879528,-1.420817 -0.383479,-0.578637 0.910038,-2.453421 l 0.477639,0.657543 c -0.178852,-1.180421 1.465003,-2.612284 1.297724,-4.477599 0.377166,-0.57022 0.420302,0.614408 0.02052,1.926335 0.554966,-1.455535 0.146764,-1.68962 0.288793,-2.891081 0.153076,0.403995 0.356651,0.832712 0.46028,1.259325 -0.361911,-1.407139 0.369801,-2.368729 0.551809,-3.186711 -0.179903,-0.0789 -0.558121,0.621772 -0.645443,-1.039443 0.01315,-0.721717 0.201471,-0.378218 0.273537,-0.556017 -0.140977,-0.08153 -0.512883,-0.634923 -0.738551,-1.695933 0.162545,-0.249865 0.43766,0.646496 0.660698,0.682792 -0.143607,-0.843232 -0.390317,-1.48657 -0.400838,-2.134118 -0.652281,-1.362427 -0.230929,0.182007 -0.759066,-0.58495 -0.694364,-2.164102 0.575481,-0.502361 0.661751,-1.484993 1.051014,1.522868 1.650167,3.884758 1.926334,4.862655 -0.210413,-1.192518 -0.549705,-2.348214 -0.964746,-3.466035 0.320355,0.13519 -0.514986,-2.452895 0.416093,-0.739077 C 41.386768,8.3391004 38.131146,4.9251424 35.135384,3.3238961 35.500978,3.6589795 35.963362,4.0798064 35.798187,4.1460866 34.307408,3.25972 34.569372,3.1897575 34.355803,2.8152216 33.143295,2.3212761 33.062286,2.8557262 32.260085,2.8162767 29.971832,1.6021881 29.531016,1.7310664 27.425303,0.97147387 l 0.09574,0.44818063 c -1.515507,-0.50499222 -1.765899,0.1904241 -3.403441,0.00105 -0.09942,-0.077327 0.524982,-0.2819539 1.039443,-0.3561247 -1.46553,0.1935804 -1.397146,-0.28931845 -2.831113,0.053129 0.35297,-0.2477594 0.727506,-0.41240791 1.104147,-0.62282134 C 22.235456,0.56748009 20.576872,1.1903038 21.088703,0.62323965 19.139748,1.4932992 15.677921,2.7142232 13.73528,4.5358774 L 13.67426,4.1276754 C 12.784211,5.1960496 9.7926583,7.3185951 9.5543653,8.7036416 l -0.238294,0.055234 C 8.8536883,9.5431917 8.5533231,10.431662 8.1861517,11.238072 7.580687,12.270676 7.298207,11.635753 7.3844765,11.797771 c -1.1914661,2.415547 -1.784306,4.444984 -2.2950846,6.110406 0.3640152,0.544445 0.00894,3.278242 0.1462373,5.466016 -0.5975741,10.806833 7.5843528,21.298574 16.5279748,23.720432 1.310876,0.469748 3.259829,0.452916 4.917888,0.499206 -1.955793,-0.559699 -2.208289,-0.296157 -4.114635,-0.960537 -1.374526,-0.648073 -1.675417,-1.387151 -2.649631,-2.232487 l 0.385583,0.681214 c -1.909503,-0.675954 -1.110458,-0.836393 -2.66436,-1.328235 l 0.411883,-0.53708 c -0.619141,-0.04734 -1.639646,-1.042599 -1.918444,-1.59546 l -0.677531,0.02683 C 14.641109,40.645453 14.207132,39.921105 14.23922,39.359827 l -0.21883,0.390317 C 13.772628,39.324583 11.026733,35.984796 12.451232,36.762273 12.186637,36.52135 11.834721,36.369327 11.453346,35.675488 l 0.289845,-0.330875 c -0.68437,-0.882159 -1.261429,-2.012605 -1.217242,-2.389244 0.365593,0.493419 0.619142,0.586001 0.870586,0.670692 C 9.6653583,29.331522 9.5680423,33.389872 8.2576922,29.254722 l 0.2766937,-0.0221 C 8.3223944,28.911222 8.1924641,28.564565 8.0220292,28.22317 L 8.1430169,27.021183 C 6.8973694,25.581955 7.7947827,20.895522 7.9752122,18.325848 8.0988301,17.281146 9.0151806,16.168584 9.7111233,14.423731 l -0.423983,-0.07259 c 0.8111427,-1.41398 4.6301467,-5.6806385 6.3997227,-5.4618085 0.85691,-1.0762648 -0.170435,-0.00421 -0.338239,-0.2745895 1.882674,-1.9479024 2.474462,-1.3761039 3.744833,-1.7269683 1.369266,-0.8127219 -1.175685,0.3177243 -0.52656,-0.3098338 2.36873,-0.6044126 1.678047,-1.3750518 4.767443,-1.6817294 0.326141,0.1851639 -0.75591,0.2861623 -1.027344,0.5265597 1.972626,-0.9657977 6.243493,-0.7453897 9.018846,0.5355021 3.217748,1.5049821 6.835281,5.9515437 6.978362,10.1350897 l 0.162544,0.04366 c -0.08206,1.663317 0.254601,3.587022 -0.329823,5.353443 l 0.395051,-0.836919"
     id="path4255"
     inkscape:connector-curvature="0"
     style="fill:#d70751" />
  <path
     d="m 19.014026,26.299465 -0.110993,0.550757 c 0.517091,0.702255 0.927397,1.462899 1.586517,2.009975 -0.474482,-0.925294 -0.826399,-1.30772 -1.475524,-2.560732"
     id="path4257"
     inkscape:connector-curvature="0"
     style="fill:#d70751" />
  <path
     d="m 20.23495,26.252122 c -0.273538,-0.302995 -0.434504,-0.667011 -0.616512,-1.028921 0.173592,0.637027 0.52919,1.184627 0.859014,1.742223 L 20.23495,26.252122"
     id="path4259"
     inkscape:connector-curvature="0"
     style="fill:#d70751" />
  <path
     d="m 41.846514,21.554643 -0.115201,0.29037 c -0.211466,1.503403 -0.669641,2.991027 -1.370318,4.370812 0.774322,-1.455534 1.273528,-3.047838 1.485519,-4.661182"
     id="path4261"
     inkscape:connector-curvature="0"
     style="fill:#d70751" />
  <path
     d="m 24.768833,0.39283693 c 0.530769,-0.19410638 1.305616,-0.10678481 1.870577,-0.23461098 -0.735396,0.061546 -1.467109,0.0983682 -2.189353,0.19042417 l 0.318776,0.0441868"
     id="path4263"
     inkscape:connector-curvature="0"
     style="fill:#d70751" />
  <path
     d="M 6.1098971,10.314883 C 6.2324629,11.447959 5.2577226,11.888249 6.3255709,11.14023 6.8989475,9.849343 6.1025326,10.784104 6.1098971,10.314883"
     id="path4265"
     inkscape:connector-curvature="0"
     style="fill:#d70751" />
  <path
     d="M 4.8537288,15.561541 C 5.1004386,14.805632 5.1446254,14.35219 5.2387854,13.914005 4.558624,14.784063 4.9252694,14.969754 4.8537288,15.561541"
     id="path4267"
     inkscape:connector-curvature="0"
     style="fill:#d70751" />
</svg>
