<?xml version="1.0" encoding="UTF-8" standalone="no"?>
<!-- Generator: Adobe Illustrator 14.0.0, SVG Export Plug-In  -->

<svg
   xmlns:dc="http://purl.org/dc/elements/1.1/"
   xmlns:cc="http://creativecommons.org/ns#"
   xmlns:rdf="http://www.w3.org/1999/02/22-rdf-syntax-ns#"
   xmlns:svg="http://www.w3.org/2000/svg"
   xmlns="http://www.w3.org/2000/svg"
   xmlns:sodipodi="http://sodipodi.sourceforge.net/DTD/sodipodi-0.dtd"
   xmlns:inkscape="http://www.inkscape.org/namespaces/inkscape"
   version="1.1"
   x="0px"
   y="0px"
   width="48"
   height="48"
   viewBox="-0.424 -0.244 48 48"
   enable-background="new -0.424 -0.244 758 171"
   xml:space="preserve"
   id="svg4910"
   inkscape:version="0.91 r13725"
   sodipodi:docname="Ubuntu-logo.svg"><metadata
     id="metadata4932"><rdf:RDF><cc:Work
         rdf:about=""><dc:format>image/svg+xml</dc:format><dc:type
           rdf:resource="http://purl.org/dc/dcmitype/StillImage" /><dc:title></dc:title></cc:Work></rdf:RDF></metadata><defs
     id="defs4930" /><sodipodi:namedview
     pagecolor="#ffffff"
     bordercolor="#666666"
     borderopacity="1"
     objecttolerance="10"
     gridtolerance="10"
     guidetolerance="10"
     inkscape:pageopacity="0"
     inkscape:pageshadow="2"
     inkscape:window-width="1920"
     inkscape:window-height="1121"
     id="namedview4928"
     showgrid="false"
     inkscape:zoom="8.1494523"
     inkscape:cx="23.734605"
     inkscape:cy="23.675179"
     inkscape:window-x="2996"
     inkscape:window-y="308"
     inkscape:window-maximized="1"
     inkscape:current-layer="svg4910" /><circle
     cx="23.639273"
     cy="23.746725"
     r="23.894453"
     id="circle4912"
     style="fill:#dd4814" /><path
     d="m 7.391943,20.555772 c -1.7628523,0 -3.1909528,1.4281 -3.1909528,3.190953 0,1.761798 1.4281005,3.189898 3.1909528,3.189898 1.7617984,0 3.189898,-1.4281 3.189898,-3.189898 -5.27e-4,-1.762853 -1.4286272,-3.190953 -3.189898,-3.190953 z m 22.777382,14.499251 c -1.526154,0.881425 -2.049105,2.831423 -1.167679,4.356523 0.880372,1.526153 2.830369,2.049104 4.356523,1.167678 1.526153,-0.880372 2.049105,-2.830369 1.167679,-4.356522 -0.880899,-1.524573 -2.831952,-2.048052 -4.356523,-1.167679 z M 14.32105,23.746725 c 0,-3.152469 1.566218,-5.938029 3.9622,-7.624442 l -2.332195,-3.906321 c -2.791359,1.86565 -4.867876,4.716579 -5.730852,8.055666 1.006893,0.821856 1.65162,2.072828 1.65162,3.475097 0,1.401215 -0.644727,2.652186 -1.65162,3.474043 0.861922,3.340141 2.938439,6.191069 5.730852,8.05672 l 2.332195,-3.907376 c -2.395982,-1.685357 -3.9622,-4.47039 -3.9622,-7.623387 z m 9.318235,-9.31929 c 4.867877,0 8.862234,3.732355 9.280806,8.492162 l 4.545776,-0.06695 c -0.223519,-3.514107 -1.758634,-6.668685 -4.117715,-8.988754 -1.213015,0.45811 -2.61423,0.387996 -3.825136,-0.309976 -1.213015,-0.70008 -1.97372,-1.880939 -2.181952,-3.163013 -1.178749,-0.325264 -2.419704,-0.503446 -3.702306,-0.503446 -2.205674,0 -4.290627,0.517679 -6.141517,1.434426 l 2.216745,3.972217 c 1.192456,-0.554581 2.52303,-0.866665 3.925299,-0.866665 z m 0,18.637526 c -1.402269,0 -2.732843,-0.312084 -3.924772,-0.867193 l -2.216744,3.972217 c 1.851416,0.917273 3.936369,1.43548 6.141516,1.43548 1.283129,0 2.523557,-0.178183 3.702307,-0.504501 0.208231,-1.282074 0.968936,-2.461878 2.181951,-3.163012 1.211961,-0.699026 2.612121,-0.768085 3.825137,-0.309975 2.35908,-2.319543 3.894196,-5.474648 4.117715,-8.988756 l -4.546831,-0.06695 c -0.418572,4.761388 -4.412402,8.492689 -9.280279,8.492689 z M 30.16827,12.436317 c 1.526154,0.881428 3.476151,0.359531 4.356524,-1.166623 0.881425,-1.5261545 0.359528,-3.4761518 -1.166625,-4.3575784 -1.526154,-0.8803715 -3.476151,-0.3574201 -4.357578,1.168734 -0.880371,1.5250989 -0.35742,3.4750964 1.167679,4.3554674 z"
     id="path4914"
     inkscape:connector-curvature="0"
     style="fill:#ffffff" /></svg>