<?xml version="1.0" encoding="UTF-8" standalone="no"?>
<svg
   xmlns:dc="http://purl.org/dc/elements/1.1/"
   xmlns:cc="http://creativecommons.org/ns#"
   xmlns:rdf="http://www.w3.org/1999/02/22-rdf-syntax-ns#"
   xmlns:svg="http://www.w3.org/2000/svg"
   xmlns="http://www.w3.org/2000/svg"
   xmlns:sodipodi="http://sodipodi.sourceforge.net/DTD/sodipodi-0.dtd"
   xmlns:inkscape="http://www.inkscape.org/namespaces/inkscape"
   width="48"
   viewBox="0 0 48 48"
   version="1.1"
   height="48"
   id="svg2"
   inkscape:version="0.91 r13725"
   sodipodi:docname="Apple_logo_black.svg">
  <metadata
     id="metadata10">
    <rdf:RDF>
      <cc:Work
         rdf:about="">
        <dc:format>image/svg+xml</dc:format>
        <dc:type
           rdf:resource="http://purl.org/dc/dcmitype/StillImage" />
        <dc:title></dc:title>
      </cc:Work>
    </rdf:RDF>
  </metadata>
  <defs
     id="defs8" />
  <sodipodi:namedview
     pagecolor="#ffffff"
     bordercolor="#666666"
     borderopacity="1"
     objecttolerance="10"
     gridtolerance="10"
     guidetolerance="10"
     inkscape:pageopacity="0"
     inkscape:pageshadow="2"
     inkscape:window-width="1920"
     inkscape:window-height="1121"
     id="namedview6"
     showgrid="false"
     inkscape:zoom="15.706089"
     inkscape:cx="36.033594"
     inkscape:cy="26.69528"
     inkscape:window-x="2996"
     inkscape:window-y="308"
     inkscape:window-maximized="1"
     inkscape:current-layer="svg2" />
  <path
     d="m 43.042245,37.368574 c -0.723681,1.671851 -1.580284,3.210781 -2.57276,4.625651 -1.352841,1.928833 -2.460515,3.26395 -3.314164,4.005354 -1.323302,1.216966 -2.741127,1.840217 -4.259377,1.875663 -1.089954,0 -2.404394,-0.310149 -3.934463,-0.939308 -1.53509,-0.626206 -2.945825,-0.936355 -4.235749,-0.936355 -1.352841,0 -2.803748,0.310149 -4.355674,0.936355 -1.55429,0.629159 -2.806406,0.957031 -3.763733,0.989522 -1.455929,0.06203 -2.90713,-0.578945 -4.355674,-1.925877 C 11.326111,45.193191 10.169699,43.810812 8.7843662,41.852444 7.2980139,39.761152 6.0760265,37.336083 5.1186999,34.571325 4.0934358,31.585033 3.5794745,28.693263 3.5794745,25.89365 c 0,-3.20694 0.6929616,-5.972879 2.0809523,-8.290726 1.0908387,-1.861781 2.5420407,-3.33041 4.3583322,-4.408547 1.816292,-1.078138 3.778797,-1.627544 5.892241,-1.662694 1.156413,0 2.672894,0.357705 4.557419,1.060709 1.879208,0.705367 3.085836,1.063073 3.614861,1.063073 0.395513,0 1.735948,-0.418258 4.008307,-1.252116 2.14889,-0.773305 3.962523,-1.093497 5.448282,-0.967369 4.026031,0.324917 7.050722,1.911994 9.062259,4.771273 -3.600682,2.181677 -5.381823,5.237383 -5.346377,9.157372 0.03249,3.053343 1.140166,5.594202 3.317117,7.611648 0.986569,0.936355 2.088337,1.660036 3.314164,2.173997 -0.265842,0.770942 -0.546453,1.509392 -0.844787,2.218304 z M 33.808665,1.0338775 c 0,2.3931986 -0.874323,4.6277176 -2.617064,6.6959686 -2.103107,2.4587429 -4.646919,3.8795219 -7.405473,3.6553279 -0.03515,-0.287109 -0.05553,-0.589283 -0.05553,-0.906816 0,-2.2974666 1.000157,-4.75621 2.776277,-6.7665651 0.886731,-1.0178796 2.014492,-1.8642319 3.382101,-2.5393821 1.364656,-0.66507769 2.655466,-1.03288491 3.869476,-1.09585993 0.03544,0.31992611 0.05021,0.63988176 0.05021,0.95729713 z"
     id="path4"
     inkscape:connector-curvature="0" />
</svg>
